<svg xmlns="http://www.w3.org/2000/svg" version="1.1" xmlns:xlink="http://www.w3.org/1999/xlink" xmlns:svgjs="http://svgjs.dev/svgjs" width="1440" height="560" preserveAspectRatio="none" viewBox="0 0 1440 560"><g mask="url(&quot;#SvgjsMask1024&quot;)" fill="none"><rect width="1440" height="560" x="0" y="0" fill="url(&quot;#SvgjsLinearGradient1025&quot;)"></rect><path d="M-110.61 392.04L-110.61 392.04" stroke="rgba(56, 56, 56, 0.31)" stroke-width="1.5"></path><path d="M-110.61 392.04L-47.64 511.06" stroke="rgba(56, 56, 56, 0.31)" stroke-width="1.5"></path><path d="M-110.61 392.04L112.01 338.38" stroke="rgba(56, 56, 56, 0.31)" stroke-width="1.5"></path><path d="M-110.61 392.04L66.52 543.69" stroke="rgba(56, 56, 56, 0.31)" stroke-width="1.5"></path><path d="M-47.64 511.06L-47.64 511.06" stroke="rgba(56, 56, 56, 0.31)" stroke-width="1.5"></path><path d="M-47.64 511.06L66.52 543.69" stroke="rgba(56, 56, 56, 0.31)" stroke-width="1.5"></path><path d="M-97.24 704.56L-97.24 704.56" stroke="rgba(56, 56, 56, 0.31)" stroke-width="1.5"></path><path d="M-97.24 704.56L78.43 672.78" stroke="rgba(56, 56, 56, 0.31)" stroke-width="1.5"></path><path d="M-97.24 704.56L-47.64 511.06" stroke="rgba(56, 56, 56, 0.31)" stroke-width="1.5"></path><path d="M-97.24 704.56L66.52 543.69" stroke="rgba(56, 56, 56, 0.31)" stroke-width="1.5"></path><path d="M-97.24 704.56L-110.61 392.04" stroke="rgba(56, 56, 56, 0.31)" stroke-width="1.5"></path><path d="M-97.24 704.56L230.51 642.58" stroke="rgba(56, 56, 56, 0.31)" stroke-width="1.5"></path><path d="M112.01 338.38L112.01 338.38" stroke="rgba(56, 56, 56, 0.31)" stroke-width="1.5"></path><path d="M112.01 338.38L204.27 409.14" stroke="rgba(56, 56, 56, 0.31)" stroke-width="1.5"></path><path d="M112.01 338.38L66.52 543.69" stroke="rgba(56, 56, 56, 0.31)" stroke-width="1.5"></path><path d="M66.52 543.69L66.52 543.69" stroke="rgba(56, 56, 56, 0.31)" stroke-width="1.5"></path><path d="M66.52 543.69L78.43 672.78" stroke="rgba(56, 56, 56, 0.31)" stroke-width="1.5"></path><path d="M66.52 543.69L241.95 543.01" stroke="rgba(56, 56, 56, 0.31)" stroke-width="1.5"></path><path d="M66.52 543.69L230.51 642.58" stroke="rgba(56, 56, 56, 0.31)" stroke-width="1.5"></path><path d="M66.52 543.69L204.27 409.14" stroke="rgba(56, 56, 56, 0.31)" stroke-width="1.5"></path><path d="M78.43 672.78L78.43 672.78" stroke="rgba(56, 56, 56, 0.31)" stroke-width="1.5"></path><path d="M78.43 672.78L230.51 642.58" stroke="rgba(56, 56, 56, 0.31)" stroke-width="1.5"></path><path d="M78.43 672.78L-47.64 511.06" stroke="rgba(56, 56, 56, 0.31)" stroke-width="1.5"></path><path d="M78.43 672.78L241.95 543.01" stroke="rgba(56, 56, 56, 0.31)" stroke-width="1.5"></path><path d="M78.43 672.78L354.56 705.76" stroke="rgba(56, 56, 56, 0.31)" stroke-width="1.5"></path><path d="M204.27 409.14L204.27 409.14" stroke="rgba(56, 56, 56, 0.31)" stroke-width="1.5"></path><path d="M204.27 409.14L241.95 543.01" stroke="rgba(56, 56, 56, 0.31)" stroke-width="1.5"></path><path d="M204.27 409.14L350.5 374.39" stroke="rgba(56, 56, 56, 0.31)" stroke-width="1.5"></path><path d="M204.27 409.14L409.34 499.13" stroke="rgba(56, 56, 56, 0.31)" stroke-width="1.5"></path><path d="M204.27 409.14L230.51 642.58" stroke="rgba(56, 56, 56, 0.31)" stroke-width="1.5"></path><path d="M241.95 543.01L241.95 543.01" stroke="rgba(56, 56, 56, 0.31)" stroke-width="1.5"></path><path d="M241.95 543.01L230.51 642.58" stroke="rgba(56, 56, 56, 0.31)" stroke-width="1.5"></path><path d="M230.51 642.58L230.51 642.58" stroke="rgba(56, 56, 56, 0.31)" stroke-width="1.5"></path><path d="M230.51 642.58L354.56 705.76" stroke="rgba(56, 56, 56, 0.31)" stroke-width="1.5"></path><path d="M350.5 374.39L350.5 374.39" stroke="rgba(56, 56, 56, 0.31)" stroke-width="1.5"></path><path d="M350.5 374.39L409.34 499.13" stroke="rgba(56, 56, 56, 0.31)" stroke-width="1.5"></path><path d="M350.5 374.39L241.95 543.01" stroke="rgba(56, 56, 56, 0.31)" stroke-width="1.5"></path><path d="M350.5 374.39L552.38 378.22" stroke="rgba(56, 56, 56, 0.31)" stroke-width="1.5"></path><path d="M409.34 499.13L409.34 499.13" stroke="rgba(56, 56, 56, 0.31)" stroke-width="1.5"></path><path d="M409.34 499.13L560.61 514.95" stroke="rgba(56, 56, 56, 0.31)" stroke-width="1.5"></path><path d="M354.56 705.76L354.56 705.76" stroke="rgba(56, 56, 56, 0.31)" stroke-width="1.5"></path><path d="M354.56 705.76L492.94 654.4" stroke="rgba(56, 56, 56, 0.31)" stroke-width="1.5"></path><path d="M552.38 378.22L552.38 378.22" stroke="rgba(56, 56, 56, 0.31)" stroke-width="1.5"></path><path d="M552.38 378.22L653.27 398.43" stroke="rgba(56, 56, 56, 0.31)" stroke-width="1.5"></path><path d="M552.38 378.22L560.61 514.95" stroke="rgba(56, 56, 56, 0.31)" stroke-width="1.5"></path><path d="M560.61 514.95L560.61 514.95" stroke="rgba(56, 56, 56, 0.31)" stroke-width="1.5"></path><path d="M560.61 514.95L642.91 549.2" stroke="rgba(56, 56, 56, 0.31)" stroke-width="1.5"></path><path d="M560.61 514.95L642.86 638.95" stroke="rgba(56, 56, 56, 0.31)" stroke-width="1.5"></path><path d="M560.61 514.95L653.27 398.43" stroke="rgba(56, 56, 56, 0.31)" stroke-width="1.5"></path><path d="M492.94 654.4L492.94 654.4" stroke="rgba(56, 56, 56, 0.31)" stroke-width="1.5"></path><path d="M492.94 654.4L642.86 638.95" stroke="rgba(56, 56, 56, 0.31)" stroke-width="1.5"></path><path d="M492.94 654.4L560.61 514.95" stroke="rgba(56, 56, 56, 0.31)" stroke-width="1.5"></path><path d="M492.94 654.4L409.34 499.13" stroke="rgba(56, 56, 56, 0.31)" stroke-width="1.5"></path><path d="M653.27 398.43L653.27 398.43" stroke="rgba(56, 56, 56, 0.31)" stroke-width="1.5"></path><path d="M653.27 398.43L642.91 549.2" stroke="rgba(56, 56, 56, 0.31)" stroke-width="1.5"></path><path d="M653.27 398.43L856.15 401.07" stroke="rgba(56, 56, 56, 0.31)" stroke-width="1.5"></path><path d="M653.27 398.43L642.86 638.95" stroke="rgba(56, 56, 56, 0.31)" stroke-width="1.5"></path><path d="M653.27 398.43L854.6 545.64" stroke="rgba(56, 56, 56, 0.31)" stroke-width="1.5"></path><path d="M642.91 549.2L642.91 549.2" stroke="rgba(56, 56, 56, 0.31)" stroke-width="1.5"></path><path d="M642.91 549.2L642.86 638.95" stroke="rgba(56, 56, 56, 0.31)" stroke-width="1.5"></path><path d="M642.86 638.95L642.86 638.95" stroke="rgba(56, 56, 56, 0.31)" stroke-width="1.5"></path><path d="M642.86 638.95L788.78 655.43" stroke="rgba(56, 56, 56, 0.31)" stroke-width="1.5"></path><path d="M838.64 92.04L838.64 92.04" stroke="rgba(56, 56, 56, 0.31)" stroke-width="1.5"></path><path d="M838.64 92.04L953.43 101.64" stroke="rgba(56, 56, 56, 0.31)" stroke-width="1.5"></path><path d="M838.64 92.04L822.09 212.87" stroke="rgba(56, 56, 56, 0.31)" stroke-width="1.5"></path><path d="M838.64 92.04L984.99 241.62" stroke="rgba(56, 56, 56, 0.31)" stroke-width="1.5"></path><path d="M838.64 92.04L987.15 -83.5" stroke="rgba(56, 56, 56, 0.31)" stroke-width="1.5"></path><path d="M838.64 92.04L1095.28 201.36" stroke="rgba(56, 56, 56, 0.31)" stroke-width="1.5"></path><path d="M822.09 212.87L822.09 212.87" stroke="rgba(56, 56, 56, 0.31)" stroke-width="1.5"></path><path d="M822.09 212.87L984.99 241.62" stroke="rgba(56, 56, 56, 0.31)" stroke-width="1.5"></path><path d="M856.15 401.07L856.15 401.07" stroke="rgba(56, 56, 56, 0.31)" stroke-width="1.5"></path><path d="M856.15 401.07L854.6 545.64" stroke="rgba(56, 56, 56, 0.31)" stroke-width="1.5"></path><path d="M856.15 401.07L965.31 509.13" stroke="rgba(56, 56, 56, 0.31)" stroke-width="1.5"></path><path d="M856.15 401.07L1002.56 349.04" stroke="rgba(56, 56, 56, 0.31)" stroke-width="1.5"></path><path d="M854.6 545.64L854.6 545.64" stroke="rgba(56, 56, 56, 0.31)" stroke-width="1.5"></path><path d="M854.6 545.64L965.31 509.13" stroke="rgba(56, 56, 56, 0.31)" stroke-width="1.5"></path><path d="M788.78 655.43L788.78 655.43" stroke="rgba(56, 56, 56, 0.31)" stroke-width="1.5"></path><path d="M788.78 655.43L854.6 545.64" stroke="rgba(56, 56, 56, 0.31)" stroke-width="1.5"></path><path d="M788.78 655.43L940.8 691.11" stroke="rgba(56, 56, 56, 0.31)" stroke-width="1.5"></path><path d="M788.78 655.43L642.91 549.2" stroke="rgba(56, 56, 56, 0.31)" stroke-width="1.5"></path><path d="M788.78 655.43L965.31 509.13" stroke="rgba(56, 56, 56, 0.31)" stroke-width="1.5"></path><path d="M987.15 -83.5L987.15 -83.5" stroke="rgba(56, 56, 56, 0.31)" stroke-width="1.5"></path><path d="M987.15 -83.5L1117.99 -46.25" stroke="rgba(56, 56, 56, 0.31)" stroke-width="1.5"></path><path d="M987.15 -83.5L953.43 101.64" stroke="rgba(56, 56, 56, 0.31)" stroke-width="1.5"></path><path d="M987.15 -83.5L1162.04 86.93" stroke="rgba(56, 56, 56, 0.31)" stroke-width="1.5"></path><path d="M987.15 -83.5L1095.28 201.36" stroke="rgba(56, 56, 56, 0.31)" stroke-width="1.5"></path><path d="M953.43 101.64L953.43 101.64" stroke="rgba(56, 56, 56, 0.31)" stroke-width="1.5"></path><path d="M953.43 101.64L984.99 241.62" stroke="rgba(56, 56, 56, 0.31)" stroke-width="1.5"></path><path d="M953.43 101.64L822.09 212.87" stroke="rgba(56, 56, 56, 0.31)" stroke-width="1.5"></path><path d="M953.43 101.64L1095.28 201.36" stroke="rgba(56, 56, 56, 0.31)" stroke-width="1.5"></path><path d="M984.99 241.62L984.99 241.62" stroke="rgba(56, 56, 56, 0.31)" stroke-width="1.5"></path><path d="M984.99 241.62L1002.56 349.04" stroke="rgba(56, 56, 56, 0.31)" stroke-width="1.5"></path><path d="M984.99 241.62L1095.28 201.36" stroke="rgba(56, 56, 56, 0.31)" stroke-width="1.5"></path><path d="M984.99 241.62L1119.81 353.6" stroke="rgba(56, 56, 56, 0.31)" stroke-width="1.5"></path><path d="M984.99 241.62L856.15 401.07" stroke="rgba(56, 56, 56, 0.31)" stroke-width="1.5"></path><path d="M1002.56 349.04L1002.56 349.04" stroke="rgba(56, 56, 56, 0.31)" stroke-width="1.5"></path><path d="M1002.56 349.04L1119.81 353.6" stroke="rgba(56, 56, 56, 0.31)" stroke-width="1.5"></path><path d="M1002.56 349.04L965.31 509.13" stroke="rgba(56, 56, 56, 0.31)" stroke-width="1.5"></path><path d="M1002.56 349.04L1095.28 201.36" stroke="rgba(56, 56, 56, 0.31)" stroke-width="1.5"></path><path d="M965.31 509.13L965.31 509.13" stroke="rgba(56, 56, 56, 0.31)" stroke-width="1.5"></path><path d="M965.31 509.13L1132.93 527.26" stroke="rgba(56, 56, 56, 0.31)" stroke-width="1.5"></path><path d="M940.8 691.11L940.8 691.11" stroke="rgba(56, 56, 56, 0.31)" stroke-width="1.5"></path><path d="M940.8 691.11L1104.06 647.38" stroke="rgba(56, 56, 56, 0.31)" stroke-width="1.5"></path><path d="M940.8 691.11L854.6 545.64" stroke="rgba(56, 56, 56, 0.31)" stroke-width="1.5"></path><path d="M940.8 691.11L965.31 509.13" stroke="rgba(56, 56, 56, 0.31)" stroke-width="1.5"></path><path d="M940.8 691.11L1132.93 527.26" stroke="rgba(56, 56, 56, 0.31)" stroke-width="1.5"></path><path d="M1117.99 -46.25L1117.99 -46.25" stroke="rgba(56, 56, 56, 0.31)" stroke-width="1.5"></path><path d="M1117.99 -46.25L1162.04 86.93" stroke="rgba(56, 56, 56, 0.31)" stroke-width="1.5"></path><path d="M1162.04 86.93L1162.04 86.93" stroke="rgba(56, 56, 56, 0.31)" stroke-width="1.5"></path><path d="M1162.04 86.93L1095.28 201.36" stroke="rgba(56, 56, 56, 0.31)" stroke-width="1.5"></path><path d="M1095.28 201.36L1095.28 201.36" stroke="rgba(56, 56, 56, 0.31)" stroke-width="1.5"></path><path d="M1095.28 201.36L1119.81 353.6" stroke="rgba(56, 56, 56, 0.31)" stroke-width="1.5"></path><path d="M1095.28 201.36L1282 207.96" stroke="rgba(56, 56, 56, 0.31)" stroke-width="1.5"></path><path d="M1119.81 353.6L1119.81 353.6" stroke="rgba(56, 56, 56, 0.31)" stroke-width="1.5"></path><path d="M1119.81 353.6L1285.4 378.22" stroke="rgba(56, 56, 56, 0.31)" stroke-width="1.5"></path><path d="M1119.81 353.6L1132.93 527.26" stroke="rgba(56, 56, 56, 0.31)" stroke-width="1.5"></path><path d="M1132.93 527.26L1132.93 527.26" stroke="rgba(56, 56, 56, 0.31)" stroke-width="1.5"></path><path d="M1132.93 527.26L1243.94 489.34" stroke="rgba(56, 56, 56, 0.31)" stroke-width="1.5"></path><path d="M1132.93 527.26L1104.06 647.38" stroke="rgba(56, 56, 56, 0.31)" stroke-width="1.5"></path><path d="M1104.06 647.38L1104.06 647.38" stroke="rgba(56, 56, 56, 0.31)" stroke-width="1.5"></path><path d="M1104.06 647.38L1261.22 659.14" stroke="rgba(56, 56, 56, 0.31)" stroke-width="1.5"></path><path d="M1104.06 647.38L965.31 509.13" stroke="rgba(56, 56, 56, 0.31)" stroke-width="1.5"></path><path d="M1104.06 647.38L1243.94 489.34" stroke="rgba(56, 56, 56, 0.31)" stroke-width="1.5"></path><path d="M1302.91 -112.33L1302.91 -112.33" stroke="rgba(56, 56, 56, 0.31)" stroke-width="1.5"></path><path d="M1302.91 -112.33L1117.99 -46.25" stroke="rgba(56, 56, 56, 0.31)" stroke-width="1.5"></path><path d="M1302.91 -112.33L1309.97 85.46" stroke="rgba(56, 56, 56, 0.31)" stroke-width="1.5"></path><path d="M1302.91 -112.33L1433.41 78.44" stroke="rgba(56, 56, 56, 0.31)" stroke-width="1.5"></path><path d="M1302.91 -112.33L1162.04 86.93" stroke="rgba(56, 56, 56, 0.31)" stroke-width="1.5"></path><path d="M1302.91 -112.33L1561.98 -77.6" stroke="rgba(56, 56, 56, 0.31)" stroke-width="1.5"></path><path d="M1302.91 -112.33L987.15 -83.5" stroke="rgba(56, 56, 56, 0.31)" stroke-width="1.5"></path><path d="M1309.97 85.46L1309.97 85.46" stroke="rgba(56, 56, 56, 0.31)" stroke-width="1.5"></path><path d="M1309.97 85.46L1433.41 78.44" stroke="rgba(56, 56, 56, 0.31)" stroke-width="1.5"></path><path d="M1282 207.96L1282 207.96" stroke="rgba(56, 56, 56, 0.31)" stroke-width="1.5"></path><path d="M1282 207.96L1309.97 85.46" stroke="rgba(56, 56, 56, 0.31)" stroke-width="1.5"></path><path d="M1282 207.96L1412.36 213.25" stroke="rgba(56, 56, 56, 0.31)" stroke-width="1.5"></path><path d="M1285.4 378.22L1285.4 378.22" stroke="rgba(56, 56, 56, 0.31)" stroke-width="1.5"></path><path d="M1285.4 378.22L1243.94 489.34" stroke="rgba(56, 56, 56, 0.31)" stroke-width="1.5"></path><path d="M1285.4 378.22L1400.84 411.95" stroke="rgba(56, 56, 56, 0.31)" stroke-width="1.5"></path><path d="M1285.4 378.22L1282 207.96" stroke="rgba(56, 56, 56, 0.31)" stroke-width="1.5"></path><path d="M1285.4 378.22L1405.02 537.91" stroke="rgba(56, 56, 56, 0.31)" stroke-width="1.5"></path><path d="M1285.4 378.22L1412.36 213.25" stroke="rgba(56, 56, 56, 0.31)" stroke-width="1.5"></path><path d="M1243.94 489.34L1243.94 489.34" stroke="rgba(56, 56, 56, 0.31)" stroke-width="1.5"></path><path d="M1261.22 659.14L1261.22 659.14" stroke="rgba(56, 56, 56, 0.31)" stroke-width="1.5"></path><path d="M1261.22 659.14L1393.93 701.59" stroke="rgba(56, 56, 56, 0.31)" stroke-width="1.5"></path><path d="M1261.22 659.14L1243.94 489.34" stroke="rgba(56, 56, 56, 0.31)" stroke-width="1.5"></path><path d="M1261.22 659.14L1132.93 527.26" stroke="rgba(56, 56, 56, 0.31)" stroke-width="1.5"></path><path d="M1261.22 659.14L1405.02 537.91" stroke="rgba(56, 56, 56, 0.31)" stroke-width="1.5"></path><path d="M1433.41 78.44L1433.41 78.44" stroke="rgba(56, 56, 56, 0.31)" stroke-width="1.5"></path><path d="M1433.41 78.44L1412.36 213.25" stroke="rgba(56, 56, 56, 0.31)" stroke-width="1.5"></path><path d="M1433.41 78.44L1591.77 55.25" stroke="rgba(56, 56, 56, 0.31)" stroke-width="1.5"></path><path d="M1433.41 78.44L1566.22 213.83" stroke="rgba(56, 56, 56, 0.31)" stroke-width="1.5"></path><path d="M1412.36 213.25L1412.36 213.25" stroke="rgba(56, 56, 56, 0.31)" stroke-width="1.5"></path><path d="M1412.36 213.25L1566.22 213.83" stroke="rgba(56, 56, 56, 0.31)" stroke-width="1.5"></path><path d="M1412.36 213.25L1309.97 85.46" stroke="rgba(56, 56, 56, 0.31)" stroke-width="1.5"></path><path d="M1412.36 213.25L1400.84 411.95" stroke="rgba(56, 56, 56, 0.31)" stroke-width="1.5"></path><path d="M1400.84 411.95L1400.84 411.95" stroke="rgba(56, 56, 56, 0.31)" stroke-width="1.5"></path><path d="M1400.84 411.95L1405.02 537.91" stroke="rgba(56, 56, 56, 0.31)" stroke-width="1.5"></path><path d="M1400.84 411.95L1540.44 495.5" stroke="rgba(56, 56, 56, 0.31)" stroke-width="1.5"></path><path d="M1405.02 537.91L1405.02 537.91" stroke="rgba(56, 56, 56, 0.31)" stroke-width="1.5"></path><path d="M1405.02 537.91L1540.44 495.5" stroke="rgba(56, 56, 56, 0.31)" stroke-width="1.5"></path><path d="M1405.02 537.91L1393.93 701.59" stroke="rgba(56, 56, 56, 0.31)" stroke-width="1.5"></path><path d="M1393.93 701.59L1393.93 701.59" stroke="rgba(56, 56, 56, 0.31)" stroke-width="1.5"></path><path d="M1561.98 -77.6L1561.98 -77.6" stroke="rgba(56, 56, 56, 0.31)" stroke-width="1.5"></path><path d="M1561.98 -77.6L1591.77 55.25" stroke="rgba(56, 56, 56, 0.31)" stroke-width="1.5"></path><path d="M1561.98 -77.6L1433.41 78.44" stroke="rgba(56, 56, 56, 0.31)" stroke-width="1.5"></path><path d="M1591.77 55.25L1591.77 55.25" stroke="rgba(56, 56, 56, 0.31)" stroke-width="1.5"></path><path d="M1591.77 55.25L1566.22 213.83" stroke="rgba(56, 56, 56, 0.31)" stroke-width="1.5"></path><path d="M1591.77 55.25L1412.36 213.25" stroke="rgba(56, 56, 56, 0.31)" stroke-width="1.5"></path><path d="M1591.77 55.25L1309.97 85.46" stroke="rgba(56, 56, 56, 0.31)" stroke-width="1.5"></path><path d="M1566.22 213.83L1566.22 213.83" stroke="rgba(56, 56, 56, 0.31)" stroke-width="1.5"></path><path d="M1566.22 213.83L1562.59 381.49" stroke="rgba(56, 56, 56, 0.31)" stroke-width="1.5"></path><path d="M1566.22 213.83L1400.84 411.95" stroke="rgba(56, 56, 56, 0.31)" stroke-width="1.5"></path><path d="M1566.22 213.83L1540.44 495.5" stroke="rgba(56, 56, 56, 0.31)" stroke-width="1.5"></path><path d="M1562.59 381.49L1562.59 381.49" stroke="rgba(56, 56, 56, 0.31)" stroke-width="1.5"></path><path d="M1562.59 381.49L1540.44 495.5" stroke="rgba(56, 56, 56, 0.31)" stroke-width="1.5"></path><path d="M1540.44 495.5L1540.44 495.5" stroke="rgba(56, 56, 56, 0.31)" stroke-width="1.5"></path><path d="M1567.04 673.68L1567.04 673.68" stroke="rgba(56, 56, 56, 0.31)" stroke-width="1.5"></path><path d="M1567.04 673.68L1393.93 701.59" stroke="rgba(56, 56, 56, 0.31)" stroke-width="1.5"></path><path d="M1567.04 673.68L1540.44 495.5" stroke="rgba(56, 56, 56, 0.31)" stroke-width="1.5"></path><path d="M1567.04 673.68L1405.02 537.91" stroke="rgba(56, 56, 56, 0.31)" stroke-width="1.5"></path><path d="M1567.04 673.68L1562.59 381.49" stroke="rgba(56, 56, 56, 0.31)" stroke-width="1.5"></path><path d="M1567.04 673.68L1261.22 659.14" stroke="rgba(56, 56, 56, 0.31)" stroke-width="1.5"></path><path d="M1567.04 673.68L1400.84 411.95" stroke="rgba(56, 56, 56, 0.31)" stroke-width="1.5"></path><circle r="5" cx="-110.61" cy="392.04" fill="rgba(56, 56, 56, 0.31)"></circle><circle r="5" cx="-47.64" cy="511.06" fill="rgba(56, 56, 56, 0.31)"></circle><circle r="5" cx="-97.24" cy="704.56" fill="rgba(56, 56, 56, 0.31)"></circle><circle r="5" cx="112.01" cy="338.38" fill="rgba(56, 56, 56, 0.31)"></circle><circle r="5" cx="66.52" cy="543.69" fill="rgba(56, 56, 56, 0.31)"></circle><circle r="5" cx="78.43" cy="672.78" fill="rgba(56, 56, 56, 0.31)"></circle><circle r="5" cx="204.27" cy="409.14" fill="rgba(56, 56, 56, 0.31)"></circle><circle r="5" cx="241.95" cy="543.01" fill="rgba(56, 56, 56, 0.31)"></circle><circle r="5" cx="230.51" cy="642.58" fill="rgba(56, 56, 56, 0.31)"></circle><circle r="5" cx="350.5" cy="374.39" fill="rgba(56, 56, 56, 0.31)"></circle><circle r="5" cx="409.34" cy="499.13" fill="rgba(56, 56, 56, 0.31)"></circle><circle r="5" cx="354.56" cy="705.76" fill="rgba(56, 56, 56, 0.31)"></circle><circle r="5" cx="552.38" cy="378.22" fill="rgba(56, 56, 56, 0.31)"></circle><circle r="5" cx="560.61" cy="514.95" fill="rgba(56, 56, 56, 0.31)"></circle><circle r="5" cx="492.94" cy="654.4" fill="rgba(56, 56, 56, 0.31)"></circle><circle r="5" cx="653.27" cy="398.43" fill="rgba(56, 56, 56, 0.31)"></circle><circle r="5" cx="642.91" cy="549.2" fill="rgba(56, 56, 56, 0.31)"></circle><circle r="5" cx="642.86" cy="638.95" fill="rgba(56, 56, 56, 0.31)"></circle><circle r="5" cx="838.64" cy="92.04" fill="rgba(56, 56, 56, 0.31)"></circle><circle r="5" cx="822.09" cy="212.87" fill="rgba(56, 56, 56, 0.31)"></circle><circle r="5" cx="856.15" cy="401.07" fill="rgba(56, 56, 56, 0.31)"></circle><circle r="5" cx="854.6" cy="545.64" fill="rgba(56, 56, 56, 0.31)"></circle><circle r="5" cx="788.78" cy="655.43" fill="rgba(56, 56, 56, 0.31)"></circle><circle r="5" cx="987.15" cy="-83.5" fill="rgba(56, 56, 56, 0.31)"></circle><circle r="5" cx="953.43" cy="101.64" fill="rgba(56, 56, 56, 0.31)"></circle><circle r="5" cx="984.99" cy="241.62" fill="rgba(56, 56, 56, 0.31)"></circle><circle r="5" cx="1002.56" cy="349.04" fill="rgba(56, 56, 56, 0.31)"></circle><circle r="5" cx="965.31" cy="509.13" fill="rgba(56, 56, 56, 0.31)"></circle><circle r="5" cx="940.8" cy="691.11" fill="rgba(56, 56, 56, 0.31)"></circle><circle r="5" cx="1117.99" cy="-46.25" fill="rgba(56, 56, 56, 0.31)"></circle><circle r="5" cx="1162.04" cy="86.93" fill="rgba(56, 56, 56, 0.31)"></circle><circle r="5" cx="1095.28" cy="201.36" fill="rgba(56, 56, 56, 0.31)"></circle><circle r="5" cx="1119.81" cy="353.6" fill="rgba(56, 56, 56, 0.31)"></circle><circle r="5" cx="1132.93" cy="527.26" fill="rgba(56, 56, 56, 0.31)"></circle><circle r="5" cx="1104.06" cy="647.38" fill="rgba(56, 56, 56, 0.31)"></circle><circle r="5" cx="1302.91" cy="-112.33" fill="rgba(56, 56, 56, 0.31)"></circle><circle r="5" cx="1309.97" cy="85.46" fill="rgba(56, 56, 56, 0.31)"></circle><circle r="5" cx="1282" cy="207.96" fill="rgba(56, 56, 56, 0.31)"></circle><circle r="5" cx="1285.4" cy="378.22" fill="rgba(56, 56, 56, 0.31)"></circle><circle r="5" cx="1243.94" cy="489.34" fill="rgba(56, 56, 56, 0.31)"></circle><circle r="5" cx="1261.22" cy="659.14" fill="rgba(56, 56, 56, 0.31)"></circle><circle r="5" cx="1433.41" cy="78.44" fill="rgba(56, 56, 56, 0.31)"></circle><circle r="5" cx="1412.36" cy="213.25" fill="rgba(56, 56, 56, 0.31)"></circle><circle r="5" cx="1400.84" cy="411.95" fill="rgba(56, 56, 56, 0.31)"></circle><circle r="5" cx="1405.02" cy="537.91" fill="rgba(56, 56, 56, 0.31)"></circle><circle r="5" cx="1393.93" cy="701.59" fill="rgba(56, 56, 56, 0.31)"></circle><circle r="5" cx="1561.98" cy="-77.6" fill="rgba(56, 56, 56, 0.31)"></circle><circle r="5" cx="1591.77" cy="55.25" fill="rgba(56, 56, 56, 0.31)"></circle><circle r="5" cx="1566.22" cy="213.83" fill="rgba(56, 56, 56, 0.31)"></circle><circle r="5" cx="1562.59" cy="381.49" fill="rgba(56, 56, 56, 0.31)"></circle><circle r="5" cx="1540.44" cy="495.5" fill="rgba(56, 56, 56, 0.31)"></circle><circle r="5" cx="1567.04" cy="673.68" fill="rgba(56, 56, 56, 0.31)"></circle><path d="M639.34 651.63L639.34 651.63" stroke="hsla(0, 0%, 100%, 0.21)" stroke-width="1.5"></path><path d="M639.34 651.63L664.52 541.86" stroke="hsla(0, 0%, 100%, 0.21)" stroke-width="1.5"></path><path d="M639.34 651.63L487.88 659.74" stroke="hsla(0, 0%, 100%, 0.21)" stroke-width="1.5"></path><path d="M639.34 651.63L807.11 664.3" stroke="hsla(0, 0%, 100%, 0.21)" stroke-width="1.5"></path><path d="M639.34 651.63L525.33 506.91" stroke="hsla(0, 0%, 100%, 0.21)" stroke-width="1.5"></path><path d="M639.34 651.63L843.41 510.27" stroke="hsla(0, 0%, 100%, 0.21)" stroke-width="1.5"></path><path d="M639.34 651.63L407.38 542.31" stroke="hsla(0, 0%, 100%, 0.21)" stroke-width="1.5"></path><path d="M829.78 395.02L829.78 395.02" stroke="hsla(0, 0%, 100%, 0.21)" stroke-width="1.5"></path><path d="M829.78 395.02L843.41 510.27" stroke="hsla(0, 0%, 100%, 0.21)" stroke-width="1.5"></path><path d="M829.78 395.02L682.95 366.89" stroke="hsla(0, 0%, 100%, 0.21)" stroke-width="1.5"></path><path d="M829.78 395.02L980.11 350.82" stroke="hsla(0, 0%, 100%, 0.21)" stroke-width="1.5"></path><path d="M829.78 395.02L980.38 533.21" stroke="hsla(0, 0%, 100%, 0.21)" stroke-width="1.5"></path><path d="M1106.38 490.11L1106.38 490.11" stroke="hsla(0, 0%, 100%, 0.21)" stroke-width="1.5"></path><path d="M1106.38 490.11L1144.19 386.01" stroke="hsla(0, 0%, 100%, 0.21)" stroke-width="1.5"></path><path d="M1106.38 490.11L980.38 533.21" stroke="hsla(0, 0%, 100%, 0.21)" stroke-width="1.5"></path><path d="M1106.38 490.11L1244.44 487.81" stroke="hsla(0, 0%, 100%, 0.21)" stroke-width="1.5"></path><path d="M1107.59 690.74L1107.59 690.74" stroke="hsla(0, 0%, 100%, 0.21)" stroke-width="1.5"></path><path d="M1107.59 690.74L994.37 688.94" stroke="hsla(0, 0%, 100%, 0.21)" stroke-width="1.5"></path><path d="M1107.59 690.74L1106.38 490.11" stroke="hsla(0, 0%, 100%, 0.21)" stroke-width="1.5"></path><path d="M1107.59 690.74L980.38 533.21" stroke="hsla(0, 0%, 100%, 0.21)" stroke-width="1.5"></path><path d="M1107.59 690.74L1244.44 487.81" stroke="hsla(0, 0%, 100%, 0.21)" stroke-width="1.5"></path><path d="M1550.83 382.5L1550.83 382.5" stroke="hsla(0, 0%, 100%, 0.21)" stroke-width="1.5"></path><path d="M1550.83 382.5L1592.6 520.87" stroke="hsla(0, 0%, 100%, 0.21)" stroke-width="1.5"></path><path d="M1550.83 382.5L1402.8 395.58" stroke="hsla(0, 0%, 100%, 0.21)" stroke-width="1.5"></path><path d="M1550.83 382.5L1608.59 198.71" stroke="hsla(0, 0%, 100%, 0.21)" stroke-width="1.5"></path><path d="M-97.16 513.36L-97.16 513.36" stroke="hsla(0, 0%, 100%, 0.21)" stroke-width="1.5"></path><path d="M-97.16 513.36L52.29 510.22" stroke="hsla(0, 0%, 100%, 0.21)" stroke-width="1.5"></path><path d="M-97.16 513.36L-65.77 697.17" stroke="hsla(0, 0%, 100%, 0.21)" stroke-width="1.5"></path><path d="M-97.16 513.36L90.55 655.54" stroke="hsla(0, 0%, 100%, 0.21)" stroke-width="1.5"></path><path d="M-97.16 513.36L258.34 549.98" stroke="hsla(0, 0%, 100%, 0.21)" stroke-width="1.5"></path><path d="M-97.16 513.36L221.5 702.26" stroke="hsla(0, 0%, 100%, 0.21)" stroke-width="1.5"></path><path d="M-65.77 697.17L-65.77 697.17" stroke="hsla(0, 0%, 100%, 0.21)" stroke-width="1.5"></path><path d="M-65.77 697.17L90.55 655.54" stroke="hsla(0, 0%, 100%, 0.21)" stroke-width="1.5"></path><path d="M-65.77 697.17L52.29 510.22" stroke="hsla(0, 0%, 100%, 0.21)" stroke-width="1.5"></path><path d="M52.29 510.22L52.29 510.22" stroke="hsla(0, 0%, 100%, 0.21)" stroke-width="1.5"></path><path d="M52.29 510.22L90.55 655.54" stroke="hsla(0, 0%, 100%, 0.21)" stroke-width="1.5"></path><path d="M52.29 510.22L258.34 549.98" stroke="hsla(0, 0%, 100%, 0.21)" stroke-width="1.5"></path><path d="M90.55 655.54L90.55 655.54" stroke="hsla(0, 0%, 100%, 0.21)" stroke-width="1.5"></path><path d="M90.55 655.54L221.5 702.26" stroke="hsla(0, 0%, 100%, 0.21)" stroke-width="1.5"></path><path d="M258.34 549.98L258.34 549.98" stroke="hsla(0, 0%, 100%, 0.21)" stroke-width="1.5"></path><path d="M258.34 549.98L339.34 641.95" stroke="hsla(0, 0%, 100%, 0.21)" stroke-width="1.5"></path><path d="M258.34 549.98L407.38 542.31" stroke="hsla(0, 0%, 100%, 0.21)" stroke-width="1.5"></path><path d="M258.34 549.98L221.5 702.26" stroke="hsla(0, 0%, 100%, 0.21)" stroke-width="1.5"></path><path d="M258.34 549.98L90.55 655.54" stroke="hsla(0, 0%, 100%, 0.21)" stroke-width="1.5"></path><path d="M221.5 702.26L221.5 702.26" stroke="hsla(0, 0%, 100%, 0.21)" stroke-width="1.5"></path><path d="M221.5 702.26L339.34 641.95" stroke="hsla(0, 0%, 100%, 0.21)" stroke-width="1.5"></path><path d="M221.5 702.26L407.38 542.31" stroke="hsla(0, 0%, 100%, 0.21)" stroke-width="1.5"></path><path d="M221.5 702.26L52.29 510.22" stroke="hsla(0, 0%, 100%, 0.21)" stroke-width="1.5"></path><path d="M221.5 702.26L487.88 659.74" stroke="hsla(0, 0%, 100%, 0.21)" stroke-width="1.5"></path><path d="M407.38 542.31L407.38 542.31" stroke="hsla(0, 0%, 100%, 0.21)" stroke-width="1.5"></path><path d="M407.38 542.31L339.34 641.95" stroke="hsla(0, 0%, 100%, 0.21)" stroke-width="1.5"></path><path d="M407.38 542.31L525.33 506.91" stroke="hsla(0, 0%, 100%, 0.21)" stroke-width="1.5"></path><path d="M339.34 641.95L339.34 641.95" stroke="hsla(0, 0%, 100%, 0.21)" stroke-width="1.5"></path><path d="M339.34 641.95L487.88 659.74" stroke="hsla(0, 0%, 100%, 0.21)" stroke-width="1.5"></path><path d="M525.33 506.91L525.33 506.91" stroke="hsla(0, 0%, 100%, 0.21)" stroke-width="1.5"></path><path d="M525.33 506.91L664.52 541.86" stroke="hsla(0, 0%, 100%, 0.21)" stroke-width="1.5"></path><path d="M525.33 506.91L487.88 659.74" stroke="hsla(0, 0%, 100%, 0.21)" stroke-width="1.5"></path><path d="M525.33 506.91L682.95 366.89" stroke="hsla(0, 0%, 100%, 0.21)" stroke-width="1.5"></path><path d="M525.33 506.91L339.34 641.95" stroke="hsla(0, 0%, 100%, 0.21)" stroke-width="1.5"></path><path d="M487.88 659.74L487.88 659.74" stroke="hsla(0, 0%, 100%, 0.21)" stroke-width="1.5"></path><path d="M487.88 659.74L407.38 542.31" stroke="hsla(0, 0%, 100%, 0.21)" stroke-width="1.5"></path><path d="M487.88 659.74L664.52 541.86" stroke="hsla(0, 0%, 100%, 0.21)" stroke-width="1.5"></path><path d="M682.95 366.89L682.95 366.89" stroke="hsla(0, 0%, 100%, 0.21)" stroke-width="1.5"></path><path d="M682.95 366.89L664.52 541.86" stroke="hsla(0, 0%, 100%, 0.21)" stroke-width="1.5"></path><path d="M664.52 541.86L664.52 541.86" stroke="hsla(0, 0%, 100%, 0.21)" stroke-width="1.5"></path><path d="M664.52 541.86L843.41 510.27" stroke="hsla(0, 0%, 100%, 0.21)" stroke-width="1.5"></path><path d="M843.41 510.27L843.41 510.27" stroke="hsla(0, 0%, 100%, 0.21)" stroke-width="1.5"></path><path d="M843.41 510.27L980.38 533.21" stroke="hsla(0, 0%, 100%, 0.21)" stroke-width="1.5"></path><path d="M843.41 510.27L807.11 664.3" stroke="hsla(0, 0%, 100%, 0.21)" stroke-width="1.5"></path><path d="M807.11 664.3L807.11 664.3" stroke="hsla(0, 0%, 100%, 0.21)" stroke-width="1.5"></path><path d="M998.42 241L998.42 241" stroke="hsla(0, 0%, 100%, 0.21)" stroke-width="1.5"></path><path d="M998.42 241L980.11 350.82" stroke="hsla(0, 0%, 100%, 0.21)" stroke-width="1.5"></path><path d="M998.42 241L1134.11 228.68" stroke="hsla(0, 0%, 100%, 0.21)" stroke-width="1.5"></path><path d="M980.11 350.82L980.11 350.82" stroke="hsla(0, 0%, 100%, 0.21)" stroke-width="1.5"></path><path d="M980.38 533.21L980.38 533.21" stroke="hsla(0, 0%, 100%, 0.21)" stroke-width="1.5"></path><path d="M980.38 533.21L994.37 688.94" stroke="hsla(0, 0%, 100%, 0.21)" stroke-width="1.5"></path><path d="M980.38 533.21L980.11 350.82" stroke="hsla(0, 0%, 100%, 0.21)" stroke-width="1.5"></path><path d="M994.37 688.94L994.37 688.94" stroke="hsla(0, 0%, 100%, 0.21)" stroke-width="1.5"></path><path d="M994.37 688.94L807.11 664.3" stroke="hsla(0, 0%, 100%, 0.21)" stroke-width="1.5"></path><path d="M994.37 688.94L1106.38 490.11" stroke="hsla(0, 0%, 100%, 0.21)" stroke-width="1.5"></path><path d="M1134.11 228.68L1134.11 228.68" stroke="hsla(0, 0%, 100%, 0.21)" stroke-width="1.5"></path><path d="M1134.11 228.68L1144.19 386.01" stroke="hsla(0, 0%, 100%, 0.21)" stroke-width="1.5"></path><path d="M1134.11 228.68L1245.39 380.11" stroke="hsla(0, 0%, 100%, 0.21)" stroke-width="1.5"></path><path d="M1144.19 386.01L1144.19 386.01" stroke="hsla(0, 0%, 100%, 0.21)" stroke-width="1.5"></path><path d="M1144.19 386.01L1245.39 380.11" stroke="hsla(0, 0%, 100%, 0.21)" stroke-width="1.5"></path><path d="M1144.19 386.01L1244.44 487.81" stroke="hsla(0, 0%, 100%, 0.21)" stroke-width="1.5"></path><path d="M1249.69 -73.62L1249.69 -73.62" stroke="hsla(0, 0%, 100%, 0.21)" stroke-width="1.5"></path><path d="M1249.69 -73.62L1286.63 112.33" stroke="hsla(0, 0%, 100%, 0.21)" stroke-width="1.5"></path><path d="M1249.69 -73.62L1461.03 109.21" stroke="hsla(0, 0%, 100%, 0.21)" stroke-width="1.5"></path><path d="M1286.63 112.33L1286.63 112.33" stroke="hsla(0, 0%, 100%, 0.21)" stroke-width="1.5"></path><path d="M1286.63 112.33L1461.03 109.21" stroke="hsla(0, 0%, 100%, 0.21)" stroke-width="1.5"></path><path d="M1286.63 112.33L1445.83 187.95" stroke="hsla(0, 0%, 100%, 0.21)" stroke-width="1.5"></path><path d="M1286.63 112.33L1134.11 228.68" stroke="hsla(0, 0%, 100%, 0.21)" stroke-width="1.5"></path><path d="M1286.63 112.33L1245.39 380.11" stroke="hsla(0, 0%, 100%, 0.21)" stroke-width="1.5"></path><path d="M1286.63 112.33L1584.5 91.77" stroke="hsla(0, 0%, 100%, 0.21)" stroke-width="1.5"></path><path d="M1245.39 380.11L1245.39 380.11" stroke="hsla(0, 0%, 100%, 0.21)" stroke-width="1.5"></path><path d="M1245.39 380.11L1244.44 487.81" stroke="hsla(0, 0%, 100%, 0.21)" stroke-width="1.5"></path><path d="M1245.39 380.11L1402.8 395.58" stroke="hsla(0, 0%, 100%, 0.21)" stroke-width="1.5"></path><path d="M1244.44 487.81L1244.44 487.81" stroke="hsla(0, 0%, 100%, 0.21)" stroke-width="1.5"></path><path d="M1244.44 487.81L1407.35 535.21" stroke="hsla(0, 0%, 100%, 0.21)" stroke-width="1.5"></path><path d="M1244.44 487.81L1402.8 395.58" stroke="hsla(0, 0%, 100%, 0.21)" stroke-width="1.5"></path><path d="M1461.03 109.21L1461.03 109.21" stroke="hsla(0, 0%, 100%, 0.21)" stroke-width="1.5"></path><path d="M1461.03 109.21L1445.83 187.95" stroke="hsla(0, 0%, 100%, 0.21)" stroke-width="1.5"></path><path d="M1461.03 109.21L1584.5 91.77" stroke="hsla(0, 0%, 100%, 0.21)" stroke-width="1.5"></path><path d="M1461.03 109.21L1608.59 198.71" stroke="hsla(0, 0%, 100%, 0.21)" stroke-width="1.5"></path><path d="M1445.83 187.95L1445.83 187.95" stroke="hsla(0, 0%, 100%, 0.21)" stroke-width="1.5"></path><path d="M1445.83 187.95L1608.59 198.71" stroke="hsla(0, 0%, 100%, 0.21)" stroke-width="1.5"></path><path d="M1402.8 395.58L1402.8 395.58" stroke="hsla(0, 0%, 100%, 0.21)" stroke-width="1.5"></path><path d="M1402.8 395.58L1407.35 535.21" stroke="hsla(0, 0%, 100%, 0.21)" stroke-width="1.5"></path><path d="M1407.35 535.21L1407.35 535.21" stroke="hsla(0, 0%, 100%, 0.21)" stroke-width="1.5"></path><path d="M1407.35 535.21L1420.89 708" stroke="hsla(0, 0%, 100%, 0.21)" stroke-width="1.5"></path><path d="M1420.89 708L1420.89 708" stroke="hsla(0, 0%, 100%, 0.21)" stroke-width="1.5"></path><path d="M1420.89 708L1571.34 654.04" stroke="hsla(0, 0%, 100%, 0.21)" stroke-width="1.5"></path><path d="M1420.89 708L1592.6 520.87" stroke="hsla(0, 0%, 100%, 0.21)" stroke-width="1.5"></path><path d="M1420.89 708L1244.44 487.81" stroke="hsla(0, 0%, 100%, 0.21)" stroke-width="1.5"></path><path d="M1420.89 708L1402.8 395.58" stroke="hsla(0, 0%, 100%, 0.21)" stroke-width="1.5"></path><path d="M1584.5 91.77L1584.5 91.77" stroke="hsla(0, 0%, 100%, 0.21)" stroke-width="1.5"></path><path d="M1584.5 91.77L1608.59 198.71" stroke="hsla(0, 0%, 100%, 0.21)" stroke-width="1.5"></path><path d="M1608.59 198.71L1608.59 198.71" stroke="hsla(0, 0%, 100%, 0.21)" stroke-width="1.5"></path><path d="M1592.6 520.87L1592.6 520.87" stroke="hsla(0, 0%, 100%, 0.21)" stroke-width="1.5"></path><path d="M1592.6 520.87L1571.34 654.04" stroke="hsla(0, 0%, 100%, 0.21)" stroke-width="1.5"></path><path d="M1592.6 520.87L1407.35 535.21" stroke="hsla(0, 0%, 100%, 0.21)" stroke-width="1.5"></path><path d="M1592.6 520.87L1402.8 395.58" stroke="hsla(0, 0%, 100%, 0.21)" stroke-width="1.5"></path><path d="M1571.34 654.04L1571.34 654.04" stroke="hsla(0, 0%, 100%, 0.21)" stroke-width="1.5"></path><path d="M1571.34 654.04L1407.35 535.21" stroke="hsla(0, 0%, 100%, 0.21)" stroke-width="1.5"></path><path d="M1571.34 654.04L1550.83 382.5" stroke="hsla(0, 0%, 100%, 0.21)" stroke-width="1.5"></path><path d="M1571.34 654.04L1402.8 395.58" stroke="hsla(0, 0%, 100%, 0.21)" stroke-width="1.5"></path><path d="M1571.34 654.04L1244.44 487.81" stroke="hsla(0, 0%, 100%, 0.21)" stroke-width="1.5"></path><circle r="25" cx="639.34" cy="651.63" fill="url(&quot;#SvgjsRadialGradient1026&quot;)"></circle><circle r="25" cx="829.78" cy="395.02" fill="url(&quot;#SvgjsRadialGradient1026&quot;)"></circle><circle r="25" cx="1106.38" cy="490.11" fill="url(&quot;#SvgjsRadialGradient1026&quot;)"></circle><circle r="25" cx="1107.59" cy="690.74" fill="url(&quot;#SvgjsRadialGradient1026&quot;)"></circle><circle r="25" cx="1550.83" cy="382.5" fill="url(&quot;#SvgjsRadialGradient1026&quot;)"></circle><circle r="5" cx="-97.16" cy="513.36" fill="rgba(250, 250, 250, 0.605)"></circle><circle r="5" cx="-65.77" cy="697.17" fill="rgba(250, 250, 250, 0.605)"></circle><circle r="5" cx="52.29" cy="510.22" fill="rgba(250, 250, 250, 0.605)"></circle><circle r="5" cx="90.55" cy="655.54" fill="rgba(250, 250, 250, 0.605)"></circle><circle r="5" cx="258.34" cy="549.98" fill="rgba(250, 250, 250, 0.605)"></circle><circle r="5" cx="221.5" cy="702.26" fill="rgba(250, 250, 250, 0.605)"></circle><circle r="5" cx="407.38" cy="542.31" fill="rgba(250, 250, 250, 0.605)"></circle><circle r="5" cx="339.34" cy="641.95" fill="rgba(250, 250, 250, 0.605)"></circle><circle r="5" cx="525.33" cy="506.91" fill="rgba(250, 250, 250, 0.605)"></circle><circle r="5" cx="487.88" cy="659.74" fill="rgba(250, 250, 250, 0.605)"></circle><circle r="5" cx="682.95" cy="366.89" fill="rgba(250, 250, 250, 0.605)"></circle><circle r="5" cx="664.52" cy="541.86" fill="rgba(250, 250, 250, 0.605)"></circle><circle r="5" cx="843.41" cy="510.27" fill="rgba(250, 250, 250, 0.605)"></circle><circle r="5" cx="807.11" cy="664.3" fill="rgba(250, 250, 250, 0.605)"></circle><circle r="5" cx="998.42" cy="241" fill="rgba(250, 250, 250, 0.605)"></circle><circle r="5" cx="980.11" cy="350.82" fill="rgba(250, 250, 250, 0.605)"></circle><circle r="5" cx="980.38" cy="533.21" fill="rgba(250, 250, 250, 0.605)"></circle><circle r="5" cx="994.37" cy="688.94" fill="rgba(250, 250, 250, 0.605)"></circle><circle r="5" cx="1134.11" cy="228.68" fill="rgba(250, 250, 250, 0.605)"></circle><circle r="5" cx="1144.19" cy="386.01" fill="rgba(250, 250, 250, 0.605)"></circle><circle r="5" cx="1249.69" cy="-73.62" fill="rgba(250, 250, 250, 0.605)"></circle><circle r="5" cx="1286.63" cy="112.33" fill="rgba(250, 250, 250, 0.605)"></circle><circle r="5" cx="1245.39" cy="380.11" fill="rgba(250, 250, 250, 0.605)"></circle><circle r="5" cx="1244.44" cy="487.81" fill="rgba(250, 250, 250, 0.605)"></circle><circle r="5" cx="1461.03" cy="109.21" fill="rgba(250, 250, 250, 0.605)"></circle><circle r="5" cx="1445.83" cy="187.95" fill="rgba(250, 250, 250, 0.605)"></circle><circle r="5" cx="1402.8" cy="395.58" fill="rgba(250, 250, 250, 0.605)"></circle><circle r="5" cx="1407.35" cy="535.21" fill="rgba(250, 250, 250, 0.605)"></circle><circle r="5" cx="1420.89" cy="708" fill="rgba(250, 250, 250, 0.605)"></circle><circle r="5" cx="1584.5" cy="91.77" fill="rgba(250, 250, 250, 0.605)"></circle><circle r="5" cx="1608.59" cy="198.71" fill="rgba(250, 250, 250, 0.605)"></circle><circle r="5" cx="1592.6" cy="520.87" fill="rgba(250, 250, 250, 0.605)"></circle><circle r="5" cx="1571.34" cy="654.04" fill="rgba(250, 250, 250, 0.605)"></circle></g><defs><mask id="SvgjsMask1024"><rect width="1440" height="560" fill="#ffffff"></rect></mask><linearGradient x1="15.28%" y1="-39.29%" x2="84.72%" y2="139.29%" gradientUnits="userSpaceOnUse" id="SvgjsLinearGradient1025"><stop stop-color="#0e2a47" offset="0"></stop><stop stop-color="rgba(8, 7, 16, 1)" offset="0"></stop></linearGradient><radialGradient id="SvgjsRadialGradient1026"><stop stop-color="#ffffff" offset="0.1"></stop><stop stop-color="rgba(204, 204, 204, 0.21)" offset="0.2"></stop><stop stop-color="rgba(204, 204, 204, 0)" offset="1"></stop></radialGradient></defs></svg>